REM DIRINDEX 1\2,1\3,1\4,1\5,1\6
REM DIRNAME folder01,folder02,folder03,folder04,folder05,folder06
TITLE ""
FILE "Disc4Track31.mp3" MP3
  TRACK 01 AUDIO
    TITLE "3:cjc030_06926"
    INDEX 01 00:00:00
  TRACK 02 AUDIO
    TITLE "0:"
    INDEX 01 00:01:26
  TRACK 03 AUDIO
    TITLE "4:cjc030_06927"
    INDEX 01 00:01:36
  TRACK 04 AUDIO
    TITLE "0:"
    INDEX 01 00:03:72
  TRACK 05 AUDIO
    TITLE "5:cjc030_06928"
    INDEX 01 00:04:07
  TRACK 06 AUDIO
    TITLE "0:"
    INDEX 01 00:05:38
  TRACK 07 AUDIO
    TITLE "6:cjc030_06929"
    INDEX 01 00:05:48
  TRACK 08 AUDIO
    TITLE "0:"
    INDEX 01 00:09:10
  TRACK 09 AUDIO
    TITLE "3:cjc030_06930"
    INDEX 01 00:09:59
  TRACK 10 AUDIO
    TITLE "0:"
    INDEX 01 00:11:07
  TRACK 11 AUDIO
    TITLE "4:cjc030_06931"
    INDEX 01 00:11:17
  TRACK 12 AUDIO
    TITLE "0:"
    INDEX 01 00:12:28
  TRACK 13 AUDIO
    TITLE "5:cjc030_06932"
    INDEX 01 00:12:38
  TRACK 14 AUDIO
    TITLE "0:"
    INDEX 01 00:13:61
  TRACK 15 AUDIO
    TITLE "3:cjc030_06933"
    INDEX 01 00:14:41
  TRACK 16 AUDIO
    TITLE "0:"
    INDEX 01 00:15:62
  TRACK 17 AUDIO
    TITLE "4:cjc030_06934"
    INDEX 01 00:15:74
  TRACK 18 AUDIO
    TITLE "0:"
    INDEX 01 00:18:35
  TRACK 19 AUDIO
    TITLE "5:cjc030_06935"
    INDEX 01 00:18:46
  TRACK 20 AUDIO
    TITLE "0:"
    INDEX 01 00:19:67
  TRACK 21 AUDIO
    TITLE "3:cjc030_06936"
    INDEX 01 00:20:47
  TRACK 22 AUDIO
    TITLE "0:"
    INDEX 01 00:22:05
  TRACK 23 AUDIO
    TITLE "4:cjc030_06937"
    INDEX 01 00:22:15
  TRACK 24 AUDIO
    TITLE "0:"
    INDEX 01 00:23:24
  TRACK 25 AUDIO
    TITLE "5:cjc030_06938"
    INDEX 01 00:23:36
  TRACK 26 AUDIO
    TITLE "0:"
    INDEX 01 00:24:63
  TRACK 27 AUDIO
    TITLE "3:cjc030_06939"
    INDEX 01 00:25:46
  TRACK 28 AUDIO
    TITLE "0:"
    INDEX 01 00:26:73
  TRACK 29 AUDIO
    TITLE "4:cjc030_06940"
    INDEX 01 00:27:08
  TRACK 30 AUDIO
    TITLE "0:"
    INDEX 01 00:29:38
  TRACK 31 AUDIO
    TITLE "5:cjc030_06941"
    INDEX 01 00:29:48
  TRACK 32 AUDIO
    TITLE "0:"
    INDEX 01 00:31:00
  TRACK 33 AUDIO
    TITLE "3:cjc030_06942"
    INDEX 01 00:31:53
  TRACK 34 AUDIO
    TITLE "0:"
    INDEX 01 00:33:01
  TRACK 35 AUDIO
    TITLE "4:cjc030_06943"
    INDEX 01 00:33:07
  TRACK 36 AUDIO
    TITLE "0:"
    INDEX 01 00:34:26
  TRACK 37 AUDIO
    TITLE "5:cjc030_06944"
    INDEX 01 00:34:34
  TRACK 38 AUDIO
    TITLE "0:"
    INDEX 01 00:35:57
  TRACK 39 AUDIO
    TITLE "3:cjc030_06945"
    INDEX 01 00:36:36
  TRACK 40 AUDIO
    TITLE "0:"
    INDEX 01 00:37:56
  TRACK 41 AUDIO
    TITLE "4:cjc030_06946"
    INDEX 01 00:37:65
  TRACK 42 AUDIO
    TITLE "0:"
    INDEX 01 00:40:38
  TRACK 43 AUDIO
    TITLE "5:cjc030_06947"
    INDEX 01 00:40:46
  TRACK 44 AUDIO
    TITLE "0:"
    INDEX 01 00:41:65
  TRACK 45 AUDIO
    TITLE "3:cjc030_06948"
    INDEX 01 00:42:43
  TRACK 46 AUDIO
    TITLE "0:"
    INDEX 01 00:43:74
  TRACK 47 AUDIO
    TITLE "4:cjc030_06949"
    INDEX 01 00:44:07
  TRACK 48 AUDIO
    TITLE "0:"
    INDEX 01 00:46:23
  TRACK 49 AUDIO
    TITLE "5:cjc030_06950"
    INDEX 01 00:46:31
  TRACK 50 AUDIO
    TITLE "0:"
    INDEX 01 00:47:60
  TRACK 51 AUDIO
    TITLE "3:cjc030_06951"
    INDEX 01 00:48:42
  TRACK 52 AUDIO
    TITLE "0:"
    INDEX 01 00:49:69
  TRACK 53 AUDIO
    TITLE "4:cjc030_06952"
    INDEX 01 00:50:03
  TRACK 54 AUDIO
    TITLE "0:"
    INDEX 01 00:54:66
  TRACK 55 AUDIO
    TITLE "5:cjc030_06953"
    INDEX 01 00:54:72
  TRACK 56 AUDIO
    TITLE "0:"
    INDEX 01 00:56:27
  TRACK 57 AUDIO
    TITLE "6:cjc030_06954"
    INDEX 01 00:56:39
  TRACK 58 AUDIO
    TITLE "0:"
    INDEX 01 01:02:20
  TRACK 59 AUDIO
    TITLE "3:cjc030_06955"
    INDEX 01 01:02:67
  TRACK 60 AUDIO
    TITLE "0:"
    INDEX 01 01:04:27
  TRACK 61 AUDIO
    TITLE "4:cjc030_06956"
    INDEX 01 01:04:33
  TRACK 62 AUDIO
    TITLE "0:"
    INDEX 01 01:05:42
  TRACK 63 AUDIO
    TITLE "5:cjc030_06957"
    INDEX 01 01:05:52
  TRACK 64 AUDIO
    TITLE "0:"
    INDEX 01 01:07:10
  TRACK 65 AUDIO
    TITLE "3:cjc030_06958"
    INDEX 01 01:07:66
  TRACK 66 AUDIO
    TITLE "0:"
    INDEX 01 01:09:20
  TRACK 67 AUDIO
    TITLE "4:cjc030_06959"
    INDEX 01 01:09:30
  TRACK 68 AUDIO
    TITLE "0:"
    INDEX 01 01:10:47
  TRACK 69 AUDIO
    TITLE "5:cjc030_06960"
    INDEX 01 01:10:55
  TRACK 70 AUDIO
    TITLE "0:"
    INDEX 01 01:12:09
  TRACK 71 AUDIO
    TITLE "6:cjc030_06961"
    INDEX 01 01:12:21
  TRACK 72 AUDIO
    TITLE "0:"
    INDEX 01 01:16:22
  TRACK 73 AUDIO
    TITLE "3:cjc030_06962"
    INDEX 01 01:16:69
  TRACK 74 AUDIO
    TITLE "0:"
    INDEX 01 01:18:11
  TRACK 75 AUDIO
    TITLE "4:cjc030_06963"
    INDEX 01 01:18:19
  TRACK 76 AUDIO
    TITLE "0:"
    INDEX 01 01:19:42
  TRACK 77 AUDIO
    TITLE "5:cjc030_06964"
    INDEX 01 01:19:52
  TRACK 78 AUDIO
    TITLE "0:"
    INDEX 01 01:20:67
